<svg xmlns="http://www.w3.org/2000/svg" width="18" height="18" viewBox="0 0 18 18" fill="none">
  <circle cx="9" cy="9" r="8.5" fill="#BFE0CB"/>
  <path d="M13.035 3.66221C13.4243 3.704 13.7319 4.0144 13.7733 4.40729L13.8768 5.38922C13.9017 5.62548 14.0247 5.83999 14.2154 5.97943L15.01 6.56068C15.3279 6.7932 15.4411 7.21852 15.2815 7.58049L14.8882 8.4721C14.792 8.69038 14.7925 8.93974 14.8898 9.15756L15.2896 10.0527C15.4519 10.4159 15.3384 10.8441 15.0183 11.0772L14.2409 11.6432C14.0478 11.7837 13.9238 12.0011 13.9002 12.2402L13.8052 13.2058C13.7661 13.6033 13.4545 13.9177 13.0606 13.9572L12.1038 14.0531C11.8668 14.0769 11.6514 14.2021 11.5121 14.3969L10.9513 15.1814C10.7203 15.5045 10.296 15.6189 9.93606 15.4552L9.04904 15.0518C8.83319 14.9536 8.58609 14.953 8.36979 15.0502L7.48625 15.447C7.12757 15.6081 6.7061 15.4938 6.47569 15.173L5.8997 14.3711C5.76153 14.1787 5.54897 14.0546 5.31485 14.0294L4.34181 13.925C3.95248 13.8832 3.64489 13.5728 3.60349 13.1799L3.50001 12.198C3.47511 11.9617 3.35205 11.7472 3.16142 11.6078L2.36676 11.0265C2.04887 10.794 1.93566 10.3687 2.0953 10.0067L2.48853 9.11512C2.5848 8.89684 2.58422 8.64748 2.48693 8.42966L2.08713 7.53453C1.92492 7.17134 2.03834 6.74311 2.35848 6.51003L3.13586 5.94407C3.32894 5.80349 3.45299 5.58609 3.47652 5.347L3.57158 4.38146C3.61072 3.98396 3.92231 3.66951 4.31622 3.63002L5.27301 3.53409C5.50993 3.51034 5.72537 3.38516 5.86466 3.19031L6.4255 2.40582C6.65647 2.08275 7.08082 1.96829 7.44071 2.13199L8.32773 2.53545C8.54358 2.63363 8.79068 2.63421 9.00698 2.53706L9.89052 2.14023C10.2492 1.97913 10.6707 2.09338 10.9011 2.41417L11.4771 3.2161C11.6152 3.40848 11.8278 3.53266 12.0619 3.55779L13.035 3.66221Z" fill="#105928"/>
  <path d="M13.7328 3.5482C14.1119 3.58852 14.4115 3.88806 14.4518 4.2672L14.5526 5.21476C14.5768 5.44276 14.6967 5.64976 14.8823 5.78431L15.6562 6.34523C15.9657 6.5696 16.076 6.98004 15.9205 7.32933L15.5376 8.18974C15.4438 8.40038 15.4444 8.64101 15.5391 8.85121L15.9285 9.71502C16.0864 10.0655 15.976 10.4787 15.6642 10.7037L14.9072 11.2498C14.7192 11.3855 14.5984 11.5953 14.5754 11.826L14.4829 12.7577C14.4448 13.1413 14.1413 13.4448 13.7577 13.4829L12.826 13.5754C12.5953 13.5984 12.3855 13.7192 12.2498 13.9072L11.7037 14.6642C11.4787 14.976 11.0655 15.0864 10.715 14.9285L9.85121 14.5391C9.64101 14.4444 9.40038 14.4438 9.18974 14.5376L8.32933 14.9205C7.98004 15.076 7.5696 14.9657 7.34523 14.6562L6.78431 13.8823C6.64976 13.6967 6.44276 13.5768 6.21476 13.5526L5.2672 13.4518C4.88806 13.4115 4.58852 13.1119 4.5482 12.7328L4.44743 11.7852C4.42318 11.5572 4.30334 11.3502 4.1177 11.2157L3.34384 10.6548C3.03428 10.4304 2.92403 10.02 3.07949 9.67066L3.46243 8.81026C3.55618 8.59962 3.55561 8.35898 3.46087 8.14879L3.07154 7.28498C2.91357 6.93451 3.02402 6.52127 3.33578 6.29635L4.09281 5.75019C4.28084 5.61454 4.40164 5.40474 4.42456 5.17402L4.51713 4.24228C4.55524 3.85868 4.85868 3.55524 5.24228 3.51713L6.17402 3.42456C6.40474 3.40164 6.61454 3.28084 6.75019 3.09281L7.29635 2.33578C7.52127 2.02402 7.93451 1.91357 8.28498 2.07154L9.14879 2.46087C9.35898 2.55561 9.59962 2.55618 9.81026 2.46243L10.6707 2.07949C11.02 1.92403 11.4304 2.03428 11.6548 2.34384L12.2157 3.1177C12.3502 3.30334 12.5572 3.42318 12.7852 3.44743L13.7328 3.5482Z" fill="#2B9950"/>
  <path fill-rule="evenodd" clip-rule="evenodd" d="M7.75157 5.46997C7.04367 5.46997 6.46973 6.04362 6.46973 6.75135C6.46973 7.45908 7.04367 8.03273 7.75157 8.03273C8.45947 8.03273 9.03341 7.45908 9.03341 6.75135C9.03341 6.04362 8.45947 5.46997 7.75157 5.46997ZM7.44859 6.75135C7.44859 6.5918 7.57953 6.45392 7.75157 6.45392C7.92361 6.45392 8.05455 6.5918 8.05455 6.75135C8.05455 6.9109 7.92361 7.04878 7.75157 7.04878C7.57953 7.04878 7.44859 6.9109 7.44859 6.75135Z" fill="white"/>
  <path d="M12.3555 5.67076C12.1229 5.43813 11.7457 5.43813 11.5131 5.67076L6.67169 10.5122C6.55939 10.6237 6.49607 10.7755 6.49607 10.9337C6.49607 11.0919 6.55917 11.2435 6.67137 11.3549C6.78282 11.4671 6.93442 11.5302 7.09258 11.5302C7.2508 11.5302 7.40248 11.4671 7.51394 11.3548L12.3555 6.51318C12.5882 6.28055 12.5882 5.90339 12.3555 5.67076Z" fill="white"/>
  <path fill-rule="evenodd" clip-rule="evenodd" d="M11.198 8.91764C10.4901 8.91764 9.91618 9.49129 9.91618 10.199C9.91618 10.9067 10.4901 11.4804 11.198 11.4804C11.9059 11.4804 12.4799 10.9067 12.4799 10.199C12.4799 9.49129 11.9059 8.91764 11.198 8.91764ZM10.895 10.199C10.895 10.0395 11.026 9.90159 11.198 9.90159C11.3701 9.90159 11.501 10.0395 11.501 10.199C11.501 10.3586 11.3701 10.4964 11.198 10.4964C11.026 10.4964 10.895 10.3586 10.895 10.199Z" fill="white"/>
  <path d="M15.3633 8.20728L15.0097 7.31083L14.1133 6.95728L15.0097 6.60372L15.3633 5.70728L15.7168 6.60372L16.6133 6.95728L15.7168 7.31083L15.3633 8.20728Z" fill="white"/>
  <path d="M13.25 5.38062L12.755 4.12559L11.5 3.63062L12.755 3.13564L13.25 1.88061L13.745 3.13564L15 3.63061L13.745 4.12559L13.25 5.38062Z" fill="white"/>
</svg>