<svg width="40" height="40" viewBox="0 0 40 40" fill="none" xmlns="http://www.w3.org/2000/svg">
<circle cx="20" cy="20" r="20" fill="white"/>
<path fill-rule="evenodd" clip-rule="evenodd" d="M31.092 20.5196C32.6237 26.1412 30.0902 28.5777 25.3574 27.6315C24.9632 28.6374 24.5621 29.6388 23.9277 30.5067C31.4812 32.3928 34.5348 26.8786 31.092 20.5196ZM16.1808 17.4339H19.4007C20.281 17.6501 20.8129 18.1085 21.0482 18.6415C21.1739 18.9273 21.2177 19.238 21.1864 19.5455C21.1545 19.8567 21.045 20.1661 20.8655 20.4438C20.48 21.0389 19.7673 21.4825 18.7981 21.4993C18.2318 21.4017 17.9465 22.0012 18.4264 22.461L21.6526 25.4323H16.1814C16.0175 25.4323 15.8829 25.2988 15.8829 25.136V17.7296C15.8829 17.5668 16.0175 17.4333 16.1814 17.4333L16.1808 17.4339ZM21.5762 17.4339H23.8188C23.9827 17.4339 24.1173 17.5674 24.1173 17.7302V25.1366C24.1173 25.2994 23.9827 25.433 23.8188 25.433H23.2951L20.0151 22.4125C20.8041 22.1497 21.4129 21.6496 21.8053 21.0439C22.0799 20.6202 22.2477 20.1425 22.2971 19.6548C22.3471 19.1634 22.2758 18.6633 22.0712 18.1992C21.9517 17.9278 21.7871 17.6699 21.5762 17.4345V17.4339ZM13.7718 12.5155C17.9096 8.38799 21.3016 9.34843 22.8427 13.8903C23.917 13.7263 24.9907 13.571 26.0651 13.6822C23.9333 6.24409 17.5968 6.37641 13.7718 12.5155ZM15.3261 31.2925C9.65713 29.799 8.79804 26.4021 11.9898 22.8057C11.3096 21.9639 10.637 21.1185 10.1971 20.1388C4.77537 25.6908 8.05846 31.0731 15.3261 31.2925Z" fill="#2E3192"/>
<path d="M31.092 20.5196C32.6237 26.1412 30.0902 28.5777 25.3574 27.6315C24.9632 28.6374 24.5621 29.6388 23.9277 30.5067C31.4812 32.3928 34.5348 26.8786 31.092 20.5196ZM16.1808 17.4339H19.4007C20.281 17.6501 20.8129 18.1085 21.0482 18.6415C21.1739 18.9273 21.2177 19.238 21.1864 19.5455C21.1545 19.8567 21.045 20.1661 20.8655 20.4438C20.48 21.0389 19.7673 21.4825 18.7981 21.4993C18.2318 21.4017 17.9465 22.0012 18.4264 22.461L21.6526 25.4323H16.1814C16.0175 25.4323 15.8829 25.2988 15.8829 25.136V17.7296C15.8829 17.5668 16.0175 17.4333 16.1814 17.4333L16.1808 17.4339ZM21.5762 17.4339H23.8188C23.9827 17.4339 24.1173 17.5674 24.1173 17.7302V25.1366C24.1173 25.2994 23.9827 25.433 23.8188 25.433H23.2951L20.0151 22.4125C20.8041 22.1497 21.4129 21.6496 21.8053 21.0439C22.0799 20.6202 22.2477 20.1425 22.2971 19.6548C22.3471 19.1634 22.2758 18.6633 22.0712 18.1992C21.9517 17.9278 21.7871 17.6699 21.5762 17.4345V17.4339ZM13.7718 12.5155C17.9096 8.38799 21.3016 9.34843 22.8427 13.8903C23.917 13.7263 24.9907 13.571 26.0651 13.6822C23.9333 6.24409 17.5968 6.37641 13.7718 12.5155ZM15.3261 31.2925C9.65713 29.799 8.79804 26.4021 11.9898 22.8057C11.3096 21.9639 10.637 21.1185 10.1971 20.1388C4.77537 25.6908 8.05846 31.0731 15.3261 31.2925Z" stroke="#231F20" stroke-width="0.208712" stroke-miterlimit="2.61"/>
<path fill-rule="evenodd" clip-rule="evenodd" d="M8.93813 17.7917C14.9455 14.2543 22.0511 13.0112 29.141 13.971C29.1811 20.9358 26.976 26.9456 22.5266 32C16.5536 28.9751 12.0241 24.319 8.9375 17.7917H8.93813ZM10.2208 20.1294C14.7641 16.2056 20.5957 14.058 26.7583 13.7822C27.8789 19.6827 26.9466 25.1186 23.962 30.0891C18.4245 28.4428 13.8568 25.19 10.2208 20.1294Z" fill="#D1D3D4"/>
</svg>