<svg width="24" height="24" viewBox="0 0 24 24" fill="none" xmlns="http://www.w3.org/2000/svg">
<path fill-rule="evenodd" clip-rule="evenodd" d="M6.40322 7.18353V6.94065C6.40322 6.38837 6.85094 5.94065 7.40322 5.94065H16.4329C16.9852 5.94065 17.4329 6.38837 17.4329 6.94065V11C17.4329 11.5523 16.9852 12 16.4329 12H7.40322C6.85094 12 6.40322 11.5523 6.40322 11V10.8165C6.40264 10.8002 6.40234 10.7839 6.40234 10.7675V7.2325C6.40234 7.2161 6.40264 7.19977 6.40322 7.18353ZM7.90322 10.5V7.44065H15.9329V10.5H7.90322Z" fill="#17181C"/>
<path d="M12.6124 13.87C12.6124 14.2622 12.2947 14.58 11.9029 14.58C11.511 14.58 11.1934 14.2622 11.1934 13.87C11.1934 13.4779 11.511 13.16 11.9029 13.16C12.2947 13.16 12.6124 13.4779 12.6124 13.87Z" fill="#17181C"/>
<path fill-rule="evenodd" clip-rule="evenodd" d="M3.90234 6C3.90234 4.34314 5.24549 3 6.90234 3H16.9023C18.5592 3 19.9023 4.34315 19.9023 6V14.0778C19.9023 15.7346 18.5592 17.0778 16.9023 17.0778H6.90234C5.24549 17.0778 3.90234 15.7346 3.90234 14.0778V6ZM6.90234 4.5H16.9023C17.7308 4.5 18.4023 5.17157 18.4023 6V14.0778C18.4023 14.9062 17.7308 15.5778 16.9023 15.5778H6.90234C6.07392 15.5778 5.40234 14.9062 5.40234 14.0778V6C5.40234 5.17157 6.07391 4.5 6.90234 4.5Z" fill="#17181C"/>
<path d="M7.03957 18.8042C7.34708 19.0799 7.37491 19.5549 7.10173 19.8653L6.325 20.7476C6.05182 21.0579 5.58109 21.086 5.27358 20.8103C4.96607 20.5347 4.93824 20.0596 5.21142 19.7493L5.98815 18.8669C6.26133 18.5566 6.73206 18.5285 7.03957 18.8042Z" fill="#17181C"/>
<path d="M17.8165 18.8669C17.5433 18.5566 17.0726 18.5285 16.7651 18.8042C16.4576 19.0799 16.4298 19.5549 16.7029 19.8653L17.4797 20.7476C17.7528 21.0579 18.2236 21.086 18.5311 20.8103C18.8386 20.5347 18.8664 20.0596 18.5932 19.7493L17.8165 18.8669Z" fill="#17181C"/>
<path d="M8.28985 19.3661C8.28985 18.951 8.62329 18.6145 9.03461 18.6145H14.7708C15.1821 18.6145 15.5156 18.951 15.5156 19.3661C15.5156 19.7812 15.1821 20.1177 14.7708 20.1177H9.03461C8.62329 20.1177 8.28985 19.7812 8.28985 19.3661Z" fill="#17181C"/>
</svg>